<?xml version="1.0" encoding="UTF-8"?>
<svg width="20px" height="20px" viewBox="0 0 20 20" version="1.1" xmlns="http://www.w3.org/2000/svg" xmlns:xlink="http://www.w3.org/1999/xlink">
    <title>cart-outline</title>
    <g id="Page-1" stroke="none" stroke-width="1" fill="none" fill-rule="evenodd">
        <g id="Marked-Copy-4" transform="translate(-334.000000, -31.000000)" fill="#111111" fill-rule="nonzero">
            <g id="cart-outline" transform="translate(334.000000, 31.000000)">
                <path d="M16,16 C17.1045695,16 18,16.8954305 18,18 C18,19.1045695 17.1045695,20 16,20 C14.89,20 14,19.1 14,18 C14,16.89 14.89,16 16,16 M0,0 L3.27,0 L4.21,2 L19,2 C19.5522847,2 20,2.44771525 20,3 C20,3.17 19.95,3.34 19.88,3.5 L16.3,9.97 C15.96,10.58 15.3,11 14.55,11 L7.1,11 L6.2,12.63 L6.17,12.75 C6.17,12.8880712 6.28192881,13 6.42,13 L18,13 L18,15 L6,15 C4.89,15 4,14.1 4,13 C4,12.65 4.09,12.32 4.24,12.04 L5.6,9.59 L2,2 L0,2 L0,0 M6,16 C7.1045695,16 8,16.8954305 8,18 C8,19.1045695 7.1045695,20 6,20 C4.89,20 4,19.1 4,18 C4,16.89 4.89,16 6,16 M15,9 L17.78,4 L5.14,4 L7.5,9 L15,9 Z" id="Shape"></path>
            </g>
        </g>
    </g>
</svg>